# xmcd CD database file
#
# Track frame offsets:
#	150
#	22105
#	39210
#
# Disc length: 813 seconds
#
# Revision: 0
# Processed by: cddbd v1.5.1PL0 Copyright (c) Steve Scherf et al.
# Submitted via: CDex 1.50
#
DISCID=1a032b03
DTITLE=NEW CINEMA 蜥蜴 - Messenger
DYEAR=2000
DGENRE=J-POP
TTITLE0=Messenger
TTITLE1=Asian Moving Woman(Man！？)
TTITLE2=Messenger(Instrumental)
EXTD=YEAR: 2000
EXTT0=
EXTT1=
EXTT2=
PLAYORDER=
